<svg width="30" height="30" viewBox="0 0 30 30" fill="none" xmlns="http://www.w3.org/2000/svg">
<rect width="30" height="30" rx="5" fill="#FF4B2B"/>
<path d="M23.6799 13.1904C23.8499 12.6804 23.9399 12.1504 23.9399 11.6104C23.9399 10.7304 23.7 9.85984 23.25 9.08984C22.34 7.52984 20.6501 6.55957 18.8201 6.55957C18.4601 6.55957 18.1 6.59969 17.75 6.67969C17.27 6.14969 16.69 5.73043 16.04 5.44043C15.39 5.15043 14.68 5 13.97 5H13.9399H13.9299C11.7099 5 9.75007 6.41023 9.07007 8.49023C8.36007 8.63023 7.70011 8.91984 7.11011 9.33984C6.53011 9.74984 6.04994 10.2902 5.68994 10.9102C5.23994 11.6702 5 12.5504 5 13.4404C5 14.6804 5.47007 15.8896 6.32007 16.8096C6.15007 17.3196 6.06006 17.8496 6.06006 18.3896C6.06006 19.2696 6.3 20.1402 6.75 20.9102C7.29 21.8302 8.1101 22.57 9.1001 23C10.0901 23.44 11.19 23.5503 12.25 23.3203C12.73 23.8503 13.31 24.2696 13.96 24.5596C14.61 24.8496 15.32 25 16.03 25H16.0601H16.0701C18.2901 25 20.2499 23.5898 20.9299 21.5098C21.6399 21.3698 22.3099 21.0802 22.8899 20.6602C23.4699 20.2402 23.9601 19.7098 24.3101 19.0898C24.7601 18.3198 25 17.4496 25 16.5596C25 15.3196 24.5299 14.1104 23.6799 13.1904ZM16.0601 23.6904C15.1701 23.6904 14.3099 23.3901 13.6299 22.8301C13.6699 22.8001 13.71 22.7798 13.75 22.7598L17.79 20.46C17.89 20.4 17.97 20.3197 18.03 20.2197C18.09 20.1197 18.1201 20.0104 18.1201 19.9004V14.2803L19.8201 15.25C19.8301 15.25 19.8401 15.2595 19.8501 15.2695C19.8501 15.2795 19.8601 15.2898 19.8601 15.2998V19.9404C19.8601 22.0104 18.1601 23.6904 16.0601 23.6904ZM7.8999 20.25C7.5699 19.68 7.38989 19.0399 7.38989 18.3799C7.38989 18.1699 7.40995 17.9502 7.44995 17.7402C7.47995 17.7602 7.53007 17.7896 7.57007 17.8096L11.6001 20.1104C11.7001 20.1704 11.8199 20.2002 11.9399 20.2002C12.0499 20.2002 12.17 20.1704 12.27 20.1104L17.1899 17.3096V19.25C17.1899 19.26 17.1899 19.2703 17.1899 19.2803C17.1799 19.2903 17.1799 19.2898 17.1699 19.2998L13.0901 21.6201C12.5101 21.9501 11.8599 22.1299 11.1899 22.1299C10.5299 22.1299 9.87004 21.9501 9.29004 21.6201C8.72004 21.3001 8.2399 20.82 7.8999 20.25ZM6.84009 11.5596C7.28009 10.7996 7.98007 10.2199 8.82007 9.91992C8.82007 9.94992 8.81006 10.0098 8.81006 10.0498V14.6504V14.6602C8.81006 14.7702 8.8499 14.8805 8.8999 14.9805C8.9599 15.0805 9.0499 15.1597 9.1499 15.2197L14.0701 18.0303L12.3701 19C12.3601 19 12.3501 19.0098 12.3401 19.0098C12.3301 19.0098 12.3201 19.01 12.3101 19L8.22998 16.6797C7.64998 16.3497 7.17009 15.8698 6.84009 15.2998C6.51009 14.7298 6.33008 14.0897 6.33008 13.4297C6.33008 12.7697 6.51009 12.1296 6.84009 11.5596ZM20.8601 14.7803L15.9299 11.9697L17.6299 11C17.6399 10.99 17.6499 10.9902 17.6599 10.9902C17.6699 10.9902 17.6799 10.9902 17.6899 10.9902L21.77 13.3203C22.35 13.6503 22.8299 14.1204 23.1599 14.6904C23.4899 15.2604 23.6699 15.9096 23.6699 16.5596C23.6699 18.1296 22.6799 19.5401 21.1799 20.0801V15.3398C21.1799 15.2198 21.1501 15.1098 21.1001 15.0098C21.0401 14.9198 20.9601 14.8303 20.8601 14.7803ZM22.5501 12.2598C22.5101 12.2298 22.4699 12.2104 22.4299 12.1904L18.3999 9.88965C18.2999 9.82965 18.1801 9.7998 18.0701 9.7998C17.9501 9.7998 17.83 9.82965 17.73 9.88965L12.8101 12.6904V10.75C12.8101 10.73 12.8201 10.7102 12.8301 10.7002L16.9099 8.37988C17.4899 8.04988 18.1401 7.87012 18.8101 7.87012C20.9101 7.87012 22.6101 9.55012 22.6101 11.6201C22.6101 11.8301 22.5901 12.0498 22.5501 12.2598ZM11.8799 15.7197L10.1699 14.75C10.1599 14.74 10.1599 14.7405 10.1499 14.7305C10.1399 14.7205 10.1399 14.7102 10.1399 14.7002V10.0498C10.1399 7.9798 11.8399 6.30957 13.9399 6.30957C14.8299 6.30957 15.6901 6.60969 16.3701 7.17969C16.3401 7.18969 16.29 7.22023 16.25 7.24023L12.21 9.54004C12.11 9.60004 12.03 9.68027 11.97 9.78027C11.91 9.88027 11.8799 9.99035 11.8799 10.1104V15.7197ZM12.8101 13.75L15 12.5L17.2 13.75V16.25L15 17.5L12.8101 16.25V13.75Z" fill="white"/>
</svg>