<svg width="30" height="30" viewBox="0 0 30 30" fill="none" xmlns="http://www.w3.org/2000/svg">
<g clip-path="url(#clip0_52_135)">
<path d="M23.4375 0H6.5625C2.93813 0 0 2.93813 0 6.5625V23.4375C0 27.0619 2.93813 30 6.5625 30H23.4375C27.0619 30 30 27.0619 30 23.4375V6.5625C30 2.93813 27.0619 0 23.4375 0Z" fill="#FF4B2B"/>
<path d="M16.2912 7.77624C16.2912 7.13443 15.7131 6.61414 15 6.61414C14.2868 6.61414 13.7087 7.13443 13.7087 7.77624V9.32571C13.7087 9.96753 14.2868 10.4878 15 10.4878C15.7131 10.4878 16.2912 9.96753 16.2912 9.32571V7.77624Z" fill="#1F2937"/>
<path d="M15 7C16.1046 7 17 6.10457 17 5C17 3.89543 16.1046 3 15 3C13.8954 3 13 3.89543 13 5C13 6.10457 13.8954 7 15 7Z" fill="#4DA6FF"/>
<path d="M18.6316 9.23682H11.3684C7.02281 9.23682 3.5 12.7596 3.5 17.1052C3.5 21.4508 7.02281 24.9737 11.3684 24.9737H18.6316C22.9772 24.9737 26.5 21.4508 26.5 17.1052C26.5 12.7596 22.9772 9.23682 18.6316 9.23682Z" fill="white"/>
<path d="M18.6316 12.2632H11.3685C8.69425 12.2632 6.52637 14.4311 6.52637 17.1053C6.52637 19.7795 8.69425 21.9474 11.3685 21.9474H18.6316C21.3059 21.9474 23.4737 19.7795 23.4737 17.1053C23.4737 14.4311 21.3059 12.2632 18.6316 12.2632Z" fill="#1F2937"/>
<path d="M12.5791 19.0421C13.4482 19.0421 14.1527 18.175 14.1527 17.1053C14.1527 16.0356 13.4482 15.1685 12.5791 15.1685C11.7099 15.1685 11.0054 16.0356 11.0054 17.1053C11.0054 18.175 11.7099 19.0421 12.5791 19.0421Z" fill="#8EDBFF"/>
<path d="M17.4211 19.0421C18.2902 19.0421 18.9948 18.175 18.9948 17.1053C18.9948 16.0356 18.2902 15.1685 17.4211 15.1685C16.552 15.1685 15.8474 16.0356 15.8474 17.1053C15.8474 18.175 16.552 19.0421 17.4211 19.0421Z" fill="#8EDBFF"/>
</g>
<defs>
<clipPath id="clip0_52_135">
<rect width="30" height="30" fill="white"/>
</clipPath>
</defs>
</svg>
